<svg id="Capa_1" data-name="Capa 1" xmlns="http://www.w3.org/2000/svg" width="720" height="720" viewBox="0 0 720 720">
  <defs>
    <style>
      .cls-1 {
        fill: #0068b5;
      }
    </style>
  </defs>
  <g>
    <rect class="cls-1" x="140.907" y="260.244" width="33.688" height="33.688"/>
    <g>
      <path d="M173.756,435.756V314.432h-31.89V435.756Zm211.957,1.2V407.223A74.113,74.113,0,0,1,374.2,406.5a13.028,13.028,0,0,1-7.552-3.357,13.449,13.449,0,0,1-3.357-7.193,77.516,77.516,0,0,1-.72-11.749V341.766h23.138V314.432H362.575V267.077H330.566V384.445c0,9.951.839,18.343,2.518,25.056a35.041,35.041,0,0,0,8.511,16.065c3.957,4.076,9.232,6.953,15.586,8.752,6.473,1.8,14.626,2.637,24.336,2.637Zm183.186-1.2V257.726h-32.01v178.03ZM299.755,326.3c-8.871-9.591-21.339-14.387-37.164-14.387a46.863,46.863,0,0,0-20.98,4.676,44.881,44.881,0,0,0-15.825,12.948l-1.8,2.277V314.432h-31.53V435.756h31.769v-62.34c.36-11.389,3.118-19.781,8.392-25.176a27.48,27.48,0,0,1,20.261-8.632c9.231,0,16.305,2.877,20.98,8.392,4.556,5.515,6.953,13.307,6.953,23.258h0v.24h0v64.138h32.25V366.822C313.183,349.559,308.627,335.892,299.755,326.3Zm220.59,48.553a66.825,66.825,0,0,0-4.556-24.576,65.8,65.8,0,0,0-12.827-20.021A58.43,58.43,0,0,0,483.18,316.83a64.863,64.863,0,0,0-25.415-4.8,63.061,63.061,0,0,0-24.7,4.916,64.543,64.543,0,0,0-20.021,13.427A62.536,62.536,0,0,0,399.62,350.4a60.982,60.982,0,0,0-4.915,24.7,65.135,65.135,0,0,0,4.675,24.7,61.6,61.6,0,0,0,13.068,20.02,59.853,59.853,0,0,0,20.261,13.428,66.228,66.228,0,0,0,26.015,5.035c27.094,0,43.878-12.348,53.948-23.857l-23.018-17.5c-4.8,5.755-16.3,13.547-30.691,13.547-8.991,0-16.424-2.038-22.058-6.234a30.784,30.784,0,0,1-11.51-16.9l-.359-1.078h95.309v-11.39Zm-95.069-11.149c0-8.872,10.19-24.337,32.129-24.457,21.939,0,32.249,15.466,32.249,24.337Z"/>
      <path d="M605.344,419.931a11.893,11.893,0,0,0-6.234-6.234,11.943,11.943,0,0,0-4.556-.959A11.488,11.488,0,0,0,590,413.7a11.893,11.893,0,0,0-6.234,6.234,11.943,11.943,0,0,0-.959,4.556,11.488,11.488,0,0,0,.959,4.556A11.893,11.893,0,0,0,590,435.277a11.947,11.947,0,0,0,4.556.959,11.488,11.488,0,0,0,4.556-.959,11.893,11.893,0,0,0,6.234-6.234,11.3,11.3,0,0,0,0-9.112Zm-1.918,8.392a9.089,9.089,0,0,1-5.155,5.155,9.934,9.934,0,0,1-3.837.72,10.373,10.373,0,0,1-3.836-.72,9.089,9.089,0,0,1-5.155-5.155,9.929,9.929,0,0,1-.72-3.836,10.373,10.373,0,0,1,.72-3.836A9.089,9.089,0,0,1,590.6,415.5a9.933,9.933,0,0,1,3.836-.72,10.378,10.378,0,0,1,3.837.72,9.089,9.089,0,0,1,5.155,5.155,9.947,9.947,0,0,1,.719,3.836A8.136,8.136,0,0,1,603.426,428.323Zm-6.714-2.877a3.711,3.711,0,0,0,2.278-1.079,3.532,3.532,0,0,0,.959-2.637,3.645,3.645,0,0,0-1.2-3,5.157,5.157,0,0,0-3.6-1.079h-5.274V431.2H592.4v-5.515h1.8l3.357,5.515h2.638Zm-1.319-1.918h-3v-3.836h3a3.49,3.49,0,0,1,1.079.239,1.229,1.229,0,0,1,.72.6,2.555,2.555,0,0,1,0,2.158,3.2,3.2,0,0,1-.72.6A3.492,3.492,0,0,1,595.393,423.528Z"/>
    </g>
  </g>
</svg>
