<svg id="Capa_1" data-name="Capa 1" xmlns="http://www.w3.org/2000/svg" width="720" height="720" viewBox="0 0 720 720">
  <defs>
    <style>
      .cls-1 {
        fill: #231f20;
      }

      .cls-2 {
        fill: #c6323e;
      }

      .cls-3 {
        fill: #fff;
      }
    </style>
  </defs>
  <g>
    <g>
      <path d="M210.369,369.484V397.9c0,10.63,1.22,15.51,11.979,15.51v1.01h-41.5v-1.01c12.323,0,10.865-13.2,10.865-23.828V359.264c0-10.628,2.2-31.653-10.134-31.653v-1.024h39.752v1.024c-10.231,0-10.965,6.224-10.965,16.846v22.272l1.777.1c16.618-16.567,18.485-19.5,19.616-21.338,8.318-13.51.459-17.519-4.133-17.519v-1.5H261.48v1.5c-5.775,0-16.66,8.991-23.084,14.234L213.457,367.26c34.035,1.614,33.3,19.355,37.109,32.584,2.143,7.462,3.534,12.1,11.7,13.686v.886s-30.323.033-30.323,0C227.3,388.7,225.1,367.281,210.369,369.484Z"/>
      <path d="M290.679,373.108c0,12.161,1.961,15.581,9.042,15.581v.889H264.393v-.889c7.213,0,7.776-8.362,7.776-15.581V341.094c0-8.455-1.783-13.067-9-13.067v-1.522h27.507Z"/>
      <path d="M281.137,302.966a9.837,9.837,0,1,1-9.847,9.832A9.912,9.912,0,0,1,281.137,302.966Z"/>
      <path d="M327.557,334.3c6.174-8.876,10.355-9.079,17.439-9.079,16.884,0,18.305,12.928,18.305,23.881l.05,24c0,11.8,1.221,15.581,7.783,15.581v.889H337.52v-.889c5.9,0,5.9-5.133,5.9-15.581V348.7c0-8.79.965-19.838-5.768-19.838-7.711,0-8,6.163-10.091,9.7v34.54c0,10.327.61,15.581,6.512,15.581v.889h-33v-.889c6.551,0,7.661-5.5,7.661-15.581V341.094c0-8.818-1.591-13.079-8.81-13.079v-1.51h27.641Z"/>
      <path d="M502.282,326.505h12.954l-2.2,4.4H502.282v37.878c0,19.055,11.019,17.463,15.638,13.32l.25,1.191c-9.888,7.97-16.617,6.269-19.132,6.269-9.578,0-15.58-6.748-15.58-15.808v-42.85h-10.69v-.516c8.346-2.888,22.052-14.026,28.4-23.283h1.119Z"/>
      <path d="M511.338,358.689c0-15.151,13.587-33.467,30.283-33.467,15.241,0,29.79,16.235,29.79,32.365,0,19-16.388,33.1-29.79,33.1C525.284,390.684,511.338,376.093,511.338,358.689Zm40.949-1.714c0-19.155-.678-30.47-10.666-30.47-10.948,0-10.171,14.589-10.171,30.47,0,19.154-.042,32.55,10.171,32.55C553.069,389.525,552.287,376.129,552.287,356.975Z"/>
      <path d="M594.878,334.3c6.176-8.876,10.352-9.079,17.434-9.079,16.885,0,18.313,12.928,18.313,23.881l.047,24c0,11.8,1.226,15.581,7.788,15.581v.889H604.839v-.889c5.9,0,5.9-5.133,5.9-15.581V348.7c0-8.79.956-19.838-5.772-19.838-7.712,0-8,6.163-10.092,9.7v34.54c0,10.327.612,15.581,6.515,15.581v.889H568.386v-.889c6.562,0,7.664-5.5,7.664-15.581V341.094c0-8.818-1.594-13.079-8.811-13.079v-1.51h27.639Z"/>
      <path d="M403.46,379.937c-1.922,2.521-4.643,10.7-14.826,10.7-11.8,0-20.7-10.75-20.7-32.194,0-17.437,11.209-32.925,24.1-32.925,9.137,0,12.657,8.159,12.657,8.159v-6.65h28.178v1.364s-9.257-1.867-9.257,11.379V388.35c-.9,13.2-6.652,22.252-29.477,28.684l.158-1.522C407.411,405.954,404.6,392.12,403.46,379.937Zm1.628-24.472c0-14.256-1.078-28.158-10.243-28.158-6.4,0-8.042,11.213-8.042,31.52,0,17.048,1.425,28.446,7.914,28.446,5.724,0,10.371-12.922,10.371-26.67Z"/>
      <path d="M426.863,369.448h9.013c-1.209,19.739,12.53,19.761,15.839,19.761,5.973,0,11.392-4.694,11.392-9.916,0-16.055-33.443-9.2-33.443-33.582,0-11.075,8.423-20.319,21.033-20.319,20.44,0,22.824,12.275,22.824,16.553h-7.632c.715-3.059-.54-15.648-13.531-15.648-10.618,0-10.2,8.674-10.2,9.267,0,15.564,36.176,9.927,36.176,32.872,0,11.575-9.758,21.233-22.854,21.954C432.829,391.631,426.863,375.239,426.863,369.448Z"/>
      <path d="M624.233,321.165a6.528,6.528,0,1,1,6.541,6.555A6.53,6.53,0,0,1,624.233,321.165Zm12.025,0a5.5,5.5,0,1,0-5.484,5.688A5.452,5.452,0,0,0,636.258,321.165Zm-2.228,3.657h-1.071l-2.082-3.356h-1.632v3.356h-.9v-7.287h3.192c1.929,0,2.582.727,2.582,1.928,0,1.433-1,1.964-2.289,2Zm-3.424-4.062c1.033,0,2.548.173,2.548-1.308,0-1.143-.935-1.28-1.831-1.28h-2.078v2.588Z"/>
      <path d="M266.533,394.581h15.958v2.334h-6.624v17.33h-2.71v-17.33h-6.624Z"/>
      <path d="M302.727,414.245V394.581h14.335v2.4H305.323v5.971h10.856v2.279H305.323V411.9h11.942v2.35Z"/>
      <path d="M346.585,394.046a8.073,8.073,0,0,1,5.8,1.961,6.96,6.96,0,0,1,2.287,4.477h-2.6a5.436,5.436,0,0,0-1.757-3.021,5.61,5.61,0,0,0-3.695-1.105,5.957,5.957,0,0,0-4.7,2.038c-1.189,1.366-1.791,3.452-1.791,6.26a9.108,9.108,0,0,0,1.618,5.609,5.651,5.651,0,0,0,4.813,2.148,5.077,5.077,0,0,0,4.485-2.269,8.549,8.549,0,0,0,1.218-3.133h2.591a8.909,8.909,0,0,1-2.3,5.209,8.181,8.181,0,0,1-6.317,2.531,8.377,8.377,0,0,1-5.761-2.071c-2.037-1.833-3.066-4.66-3.066-8.477a10.862,10.862,0,0,1,2.306-7.134A8.42,8.42,0,0,1,346.585,394.046Z"/>
      <path d="M375.7,414.245V394.581H378.4v8.124h10.225v-8.124h2.689v19.664h-2.689v-9.2H378.4v9.2Z"/>
      <path d="M424.486,414.245V394.581h3.144l9.934,15.921V394.581h2.53v19.664h-2.982l-10.085-15.922v15.922Z"/>
      <path d="M467.4,410.2a9.052,9.052,0,0,1-1.653-5.51q0-4.082,1.928-6.179a6.454,6.454,0,0,1,4.98-2.093,6.188,6.188,0,0,1,4.957,2.112,8.274,8.274,0,0,1,1.823,5.582,10.741,10.741,0,0,1-1.578,5.808,5.546,5.546,0,0,1-5.088,2.517C470.289,412.432,468.509,411.693,467.4,410.2Zm-2.421-12.512a11.664,11.664,0,0,0-1.988,6.83,11.314,11.314,0,0,0,2.321,7.305,9.92,9.92,0,0,0,14.617-.429,11.651,11.651,0,0,0,2.232-7.315,10.817,10.817,0,0,0-1.956-6.686q-2.5-3.344-7.706-3.342A8.566,8.566,0,0,0,464.983,397.683Z"/>
      <path d="M505.08,414.245V394.581h2.661V411.9H517.7v2.35Z"/>
      <path d="M542.894,410.2a9.039,9.039,0,0,1-1.653-5.51q0-4.082,1.932-6.179a6.446,6.446,0,0,1,4.98-2.093,6.224,6.224,0,0,1,4.963,2.112,8.276,8.276,0,0,1,1.816,5.582,10.752,10.752,0,0,1-1.583,5.808,5.543,5.543,0,0,1-5.089,2.517C545.786,412.432,544,411.693,542.894,410.2Zm-2.422-12.512a11.592,11.592,0,0,0-1.986,6.83,11.329,11.329,0,0,0,2.317,7.305,9.926,9.926,0,0,0,14.622-.429,11.717,11.717,0,0,0,2.23-7.315,10.824,10.824,0,0,0-1.957-6.686q-2.5-3.344-7.709-3.342A8.559,8.559,0,0,0,540.472,397.683Z"/>
      <path d="M589.062,394.067a10,10,0,0,1,4.792,1.078,6.971,6.971,0,0,1,3.589,5.393h-2.636a4.815,4.815,0,0,0-2-3.143,6.906,6.906,0,0,0-3.818-.982,5.982,5.982,0,0,0-4.6,2.048c-1.252,1.361-1.866,3.4-1.866,6.108a9.756,9.756,0,0,0,1.542,5.7q1.539,2.21,5.017,2.2a6.417,6.417,0,0,0,4.411-1.551q1.742-1.543,1.792-5h-6.162v-2.2h8.636v10.522H596.05l-.64-2.536a10.011,10.011,0,0,1-2.4,2.058,8.876,8.876,0,0,1-4.457,1,8.682,8.682,0,0,1-6.015-2.266,10.745,10.745,0,0,1-2.741-7.79,11.2,11.2,0,0,1,2.674-7.856A8.515,8.515,0,0,1,589.062,394.067Z"/>
      <path d="M626.985,406.316l-7.434-11.735h3.1l5.657,9.45,5.639-9.45h3.122l-7.424,11.735v7.929h-2.664Z"/>
    </g>
    <g>
      <path class="cls-1" d="M85.985,320.755c-.39-1.572-.908-5.347-.908-5.347-.725-3.067.793-3.9.793-3.9s13.818-7.21,39.236-7.846c7.659-.192,20.953-.424,34.238,4.083.892.364,1.106,1.071,1.461,2.389a52.142,52.142,0,0,1,1.354,11.817c-.072,1.359-1.578,3.748-1.642,4.423-.213,2.324.649,11.376.321,15.8s-2.044,19.289-5.594,29.024c-3.746,10.276-10.211,8.6-13.492,8.6l15.51,34.811-75.722-.062L92.74,353.9a2.612,2.612,0,0,0-1.191-2.384,25.426,25.426,0,0,1-5.425-4.86s-1.529-1.723-3.252-11.675c0,0-1.46-9.356.161-11.4a12.281,12.281,0,0,1,3.091-2.191Z"/>
      <path class="cls-2" d="M146.54,336.49l-4.809-1.148s-1.231-.029-1.559.628-1.284,4.373-1.284,4.373a.617.617,0,0,0,.187.531c.247.247,11.872,8.657,11.872,8.657s-9.791-.929-12.824-.19-9.078,3.936-13.017,4.593-18.428,2.211-19.329,2.295l-5.744-24.882s-.765-6.125-7.08-5.932c-4.756.143-5.5,1.384-5.743,1.913a2.329,2.329,0,0,0,0,1.914l15.7,26.606s-10.548-5.131-14.738-10.719c-2.3-3.063-4.4-17.8-2.871-20.289,1.368-2.225,9.952-4.021,13.592-3.637,1.769.339,3.334,2.011,4.4,3.255.329.383.515.167.767.572,0,0-.945-5.687-4.6-5.933a33,33,0,0,0-10.906,1.532s-.425-.043-.606-.634c-.253-.823-.826-5.78-.826-5.78a2.3,2.3,0,0,1,1.047-1.434s14.825-6.972,37.132-6.889c2.63.009,23.573-.326,33.493,4.018.877.694.315,4.04-.128,5.924a2.515,2.515,0,0,1-1.721,1.8,3.5,3.5,0,0,0-2.167,1.66s2.131,19.849,2.3,20.67-.574.957-2.63,1.1c-.9.059-11.536.244-11.536.244s-2.191-.219-2.105-1.531c.066-.957.383-2.743.959-2.743H143.8S148.111,337.018,146.54,336.49Z"/>
      <path class="cls-2" d="M130.877,353.984a53.664,53.664,0,0,1,20.836.905s2.287,1.89,2.041,3.446C153.754,358.335,137.355,359.231,130.877,353.984Z"/>
      <path class="cls-2" d="M131.234,371.733s2.87-12.439,22.01-10.716c0,0,1.326,1.071-2.384,4.783C146.454,370.206,138.378,373.557,131.234,371.733Z"/>
      <path class="cls-1" d="M127.4,312.08s2.113-.474,10.527,1.467a62.152,62.152,0,0,1,7.872,2.372c.5.168.456,1.373.168,1.456-.574.164-11.332-3.457-17.457-3.329a63.934,63.934,0,0,0-15.847,10.412,7.028,7.028,0,0,1-2.681,0S117.836,316.1,127.4,312.08Z"/>
      <path class="cls-1" d="M119.941,324.265s6.891-3.518,10.334-4.338,6.372-1.205,7.929-.8,3.283,4.588,3.364,5.327c0,0-5.168,2.488-10.088,1.972C127.225,325.984,122.587,325.436,119.941,324.265Z"/>
      <path class="cls-2" d="M159.177,318.591a2.032,2.032,0,0,1,1.479.739,1.72,1.72,0,0,1,.053,2.133c-.4.4-.765-.385-3.779-.3C156.93,321.168,158.295,318.457,159.177,318.591Z"/>
      <polygon class="cls-2" points="95.296 354.077 102.33 358.909 114.005 412.374 84.339 412.374 95.296 354.077"/>
      <path class="cls-2" d="M112.406,380.3s14.423,9.043,16.72,12.3l1.532,19.906H120.163Z"/>
      <path class="cls-2" d="M136.976,398.53s8.419,7.846,10.91,13.973H133.72Z"/>
      <path class="cls-3" d="M148.884,320.221a.872.872,0,0,1,1.13.713c1.046,4.817,2.443,15.325,2.443,16.123,0,1.518-1.6.243-1.6.243Z"/>
      <path class="cls-3" d="M118.557,306.1a3.339,3.339,0,0,1,.928-.083c.165,0,4.637,7.59,4.637,7.59-.105.087-1.629.937-1.884,1.105Z"/>
      <path class="cls-3" d="M100.033,331.347s-1.626-4.847,1.663-5.6a46.425,46.425,0,0,1,12.649-1.013s-8.349,1.6-10.878,2.615A6.788,6.788,0,0,0,100.033,331.347Z"/>
    </g>
  </g>
</svg>
