<svg id="Capa_1" data-name="Capa 1" xmlns="http://www.w3.org/2000/svg" width="720" height="720" viewBox="0 0 720 720">
  <defs>
    <style>
      .cls-1 {
        fill: #bd131b;
      }
    </style>
  </defs>
  <g id="layer1">
    <g id="g23944">
      <g id="g13605">
        <path id="path13607" class="cls-1" d="M314.877,327.121c-10.075,0-21.532,4.67-28.533,14.02l0-.019,0,0,0-12.538H262.32v87.5h24.024V366.3c0-8.962,6.949-18.487,19.813-18.487,9.942,0,20.23,6.915,20.23,18.487v49.791h24.029V361.849c0-20.125-14.4-34.728-35.539-34.728"/>
      </g>
      <g id="g13609">
        <path id="path13611" class="cls-1" d="M521.193,328.593l-21.722,59.6-21.722-59.6H450.3l36,87.475h26.331l36-87.475Z"/>
      </g>
      <g id="g13613">
        <path id="path13615" class="cls-1" d="M190.586,354.953c4.092-5.494,10.61-8.72,18.482-8.72,8.659,0,15.228,4.945,18.624,12.244l-41.98,17.417c-1.146-8.938,1.142-15.929,4.874-20.941m46.163,34.237c-10.113,7.483-15.891,9.269-25.114,9.269-8.3,0-14.8-2.577-19.377-7.1l61.429-25.483c-1.34-9.5-4.945-17.98-10.492-24.432-8.071-9.373-20.016-14.333-34.563-14.333-26.42,0-46.343,19.492-46.343,45.235,0,26.411,19.97,45.23,48.991,45.23,16.261,0,32.886-7.707,40.664-16.711Z"/>
      </g>
      <g id="g13617">
        <path id="path13619" class="cls-1" d="M160,394.03H105.386V302.419H81.031V416.093H160Z"/>
      </g>
      <g id="g13621">
        <path id="path13623" class="cls-1" d="M591.783,347.707c-13.419,0-23.162,10.169-23.162,24.635,0,13.812,10.321,24.635,23.484,24.635,13.424,0,23.162-10.449,23.162-24.635,0-13.812-10.316-24.635-23.484-24.635m0,69.86c-26.278,0-46.868-19.576-46.868-45.225,0-25.36,20.732-45.225,47.19-45.225,26.279,0,46.864,19.576,46.864,45.225,0,25.355-20.727,45.225-47.186,45.225"/>
      </g>
      <g id="g13625">
        <path id="path13627" class="cls-1" d="M406.786,347.707c-13.419,0-23.157,10.169-23.157,24.635,0,13.812,10.316,24.635,23.484,24.635,13.418,0,23.157-10.449,23.157-24.635,0-13.812-10.316-24.635-23.484-24.635m0,69.86c-26.279,0-46.864-19.576-46.864-45.225,0-25.36,20.727-45.225,47.191-45.225,26.274,0,46.864,19.576,46.864,45.225,0,25.355-20.733,45.225-47.191,45.225"/>
      </g>
    </g>
  </g>
</svg>
