<svg id="Capa_1" data-name="Capa 1" xmlns="http://www.w3.org/2000/svg" width="720" height="720" viewBox="0 0 720 720">
  <defs>
    <style>
      .cls-1 {
        fill: #f25022;
      }

      .cls-2 {
        fill: #80ba01;
      }

      .cls-3 {
        fill: #777;
      }

      .cls-4 {
        fill: #fefefe;
      }

      .cls-5 {
        fill: #02a4ef;
      }

      .cls-6 {
        fill: #ffb902;
      }
    </style>
  </defs>
  <g>
    <path class="cls-1" d="M75.563,298.883h59.9q-.006,29.952,0,59.9h-59.9v-59.9Z"/>
    <path class="cls-2" d="M141.584,298.883h59.9q0,29.952,0,59.9-29.947-.006-59.9,0-.012-29.952,0-59.9Z"/>
    <path class="cls-3" d="M615.764,321.707c5.523-3.594,12.657-3.928,18.882-2.216.053,3.7.007,7.4.025,11.1-2.958-1.3-6.437-2.151-9.549-.874a7.569,7.569,0,0,0-4.321,6.044c-.464,3.213-.162,6.469-.241,9.7,6.318.015,12.636,0,18.953.007.047-4.1-.05-8.206.054-12.308,4.3-1.223,8.545-2.594,12.82-3.882.035,5.4-.051,10.812.046,16.219,4.271-.061,8.545-.014,12.819-.029v10.52c-4.288-.176-8.58-.046-12.869-.061.018,6.048,0,12.1.007,18.148.068,3.35-.18,6.717.212,10.056.238,1.968.954,4.148,2.8,5.166,3.09,1.731,7.012.975,9.85-.924V399a25.323,25.323,0,0,1-11.844,1.814c-3.8-.281-7.735-1.663-10.214-4.685-2.864-3.414-3.6-8.037-3.659-12.362-.032-9.283,0-18.565-.014-27.851q-9.483-.006-18.961,0-.01,21.851,0,43.7H607.6q0-21.846.008-43.689c-3-.058-6.012.014-9.017-.047.011-3.457.026-6.919-.007-10.38,2.99-.068,5.983-.039,8.98-.018.22-4.6-.482-9.329.893-13.808a17.673,17.673,0,0,1,7.307-9.974Z"/>
    <path class="cls-3" d="M338.376,322.463a7.926,7.926,0,0,1,7.171,2.54,7.385,7.385,0,0,1,.9,8.415,8.058,8.058,0,0,1-8.624,3.613,7.327,7.327,0,0,1-6.016-7.218,7.5,7.5,0,0,1,6.57-7.35Z"/>
    <path class="cls-3" d="M239.086,324.068h18.842q8.8,22.337,17.644,44.66c1.5,3.724,2.9,7.491,4.476,11.186,7.544-18.608,15.2-37.17,22.684-55.8,6.041-.1,12.085-.022,18.13-.036q-.023,37.772,0,75.544c-4.361-.011-8.718.036-13.075-.025.047-18.583,0-37.166.022-55.753.007-.834-.022-1.669-.079-2.5a9.99,9.99,0,0,0-.68,1.209c-7.487,19.022-15.118,37.99-22.562,57.03-3.1.111-6.207.007-9.312.058-7.724-19.022-15.352-38.087-23.037-57.124-.2-.395-.417-.78-.651-1.151-.158,8.142-.025,16.291-.068,24.433q0,16.914,0,33.827c-4.112.011-8.224,0-12.333,0q-.006-37.777,0-75.555Z"/>
    <path class="cls-3" d="M374.031,345.421a35.462,35.462,0,0,1,19.245.058,15.5,15.5,0,0,1,3.695,1.539c-.072,4.127,0,8.257-.04,12.388-4.177-3.191-9.476-5.213-14.787-4.544a15.212,15.212,0,0,0-10.761,5.976c-3.242,4.224-3.99,9.833-3.433,15a16.242,16.242,0,0,0,5.235,10.765c3.267,2.9,7.847,3.933,12.122,3.609a24.685,24.685,0,0,0,11.624-4.771c.036,3.911-.018,7.822.029,11.733-5.3,3.151-11.646,3.964-17.709,3.666a26.261,26.261,0,0,1-16.877-7.038,26.983,26.983,0,0,1-7.84-18.126c-.317-6.983,1.105-14.269,5.123-20.1a26.064,26.064,0,0,1,14.374-10.153Z"/>
    <path class="cls-3" d="M461.808,344.489c6.217-.791,12.776-.439,18.547,2.188a22.91,22.91,0,0,1,11.315,11.437,35.516,35.516,0,0,1,2.576,17.079,28.713,28.713,0,0,1-5.695,15.766,25.078,25.078,0,0,1-14.874,9.178,37.207,37.207,0,0,1-15.168-.014,24.532,24.532,0,0,1-14.967-9.761c-4.1-5.829-5.268-13.24-4.746-20.224a28.864,28.864,0,0,1,5.98-16.546,25.852,25.852,0,0,1,17.032-9.1Z"/>
    <path class="cls-3" d="M515.553,344.6a34.27,34.27,0,0,1,17.931,1.867c.008,3.972,0,7.941,0,11.909a22.834,22.834,0,0,0-13.607-4.019c-2.421.094-5.084,1.119-6.188,3.422a5.6,5.6,0,0,0,1.878,6.627c3.673,2.458,8.055,3.5,11.862,5.7,3,1.684,5.9,3.886,7.422,7.059,2.853,5.944,1.644,13.8-3.371,18.23-4.789,4.476-11.686,5.714-18.029,5.476a38.522,38.522,0,0,1-13.172-3.022c.018-4.177-.025-8.351.022-12.524a28.342,28.342,0,0,0,11.754,5.073,15.131,15.131,0,0,0,8.941-.821c2.641-1.313,3.116-5.065,1.547-7.361-1.468-1.77-3.623-2.745-5.656-3.7-3.817-1.716-7.829-3.152-11.182-5.724a13.4,13.4,0,0,1-4.839-7.351c-1.036-4.306-.713-9.16,1.792-12.923,2.86-4.386,7.829-7.016,12.891-7.919Z"/>
    <path class="cls-3" d="M565.07,344.471c6.465-.8,13.33-.367,19.231,2.612a23.118,23.118,0,0,1,11.128,12.6,34.513,34.513,0,0,1,2.015,12.931c.01,6.541-1.756,13.254-5.861,18.443a25.312,25.312,0,0,1-15.928,9.311,34.831,34.831,0,0,1-18.248-1.544,24.009,24.009,0,0,1-13.161-12.768c-2.566-5.89-2.835-12.517-2.037-18.81a26.528,26.528,0,0,1,8.545-16.629,26.818,26.818,0,0,1,14.316-6.142Z"/>
    <path class="cls-3" d="M425.941,346.3a14.617,14.617,0,0,1,12.024-1.014c-.018,4.321,0,8.642-.011,12.963a13.768,13.768,0,0,0-8.757-2.058c-3.677.417-6.591,3.242-8.1,6.48a23.94,23.94,0,0,0-1.845,11.056q0,12.947,0,25.894H406.476q-.015-27.06-.01-54.123c4.263-.054,8.527-.032,12.79-.011-.018,3.1,0,6.2-.011,9.3,1.385-3.371,3.447-6.645,6.7-8.484Z"/>
    <path class="cls-3" d="M332.983,345.489c4.3-.018,8.595-.061,12.891.022-.05,18.036,0,36.076-.022,54.112H332.99q-.017-27.066-.007-54.134Z"/>
    <path class="cls-4" d="M465.672,354.772a13.94,13.94,0,0,1,10.837,3.677c2.993,2.943,4.152,7.214,4.472,11.286.23,4.458.047,9.1-1.824,13.233a11.836,11.836,0,0,1-6.365,6.253,17.465,17.465,0,0,1-10.56.464,12.927,12.927,0,0,1-8.12-6.7c-2.087-4.166-2.4-8.984-1.968-13.553.392-4.155,1.839-8.43,5-11.3a13.538,13.538,0,0,1,8.523-3.364Z"/>
    <path class="cls-4" d="M568.567,354.783a14.21,14.21,0,0,1,10.38,3.061,14.857,14.857,0,0,1,4.688,8.621,32.9,32.9,0,0,1,.108,11.571,16.878,16.878,0,0,1-3.35,7.947,12.122,12.122,0,0,1-7.57,4.073,17.13,17.13,0,0,1-9.268-1.007,13.131,13.131,0,0,1-6.832-7.149,25.716,25.716,0,0,1-1.536-11.8,18.721,18.721,0,0,1,3.925-10.783,13.257,13.257,0,0,1,9.455-4.536Z"/>
    <path class="cls-4" d="M652.383,355.93c4.289.015,8.581-.115,12.869.061v32.385c-2.838,1.9-6.76,2.655-9.85.924-1.846-1.018-2.562-3.2-2.8-5.166-.392-3.339-.144-6.706-.212-10.056,0-6.052.011-12.1-.007-18.148Z"/>
    <path class="cls-5" d="M75.563,364.9q29.952.01,59.9.007,0,29.952,0,59.9h-59.9V364.9Z"/>
    <path class="cls-6" d="M141.588,364.907q29.946-.011,59.9,0v59.9h-59.9q.006-29.952,0-59.9Z"/>
  </g>
</svg>
