<svg id="Capa_1" data-name="Capa 1" xmlns="http://www.w3.org/2000/svg" width="720" height="720" viewBox="0 0 720 720">
  <defs>
    <style>
      .cls-1 {
        fill: #c10e1a;
      }
    </style>
  </defs>
  <g>
    <path class="cls-1" d="M344.508,305.718H327.024a5.285,5.285,0,0,0-2.047,4.445c0,3.771,2.047,4.629,2.047,4.629h15.565c22.526,0,36.686,15.036,36.686,44.673,0,31.884-13.982,45.737-38.766,45.737l-9.994,0c-1.556,0-2.755-1.88-2.766-2.789,0-5.928-.039-43.323-.039-46.457,0-15.37-10.519-23.814-27.551-23.814-11.455,0-19.687,5.148-24.316,13.931v-9.625a2.04,2.04,0,0,0-2.175-2.231H244.835a6.4,6.4,0,0,0-1.885,4.6,5.328,5.328,0,0,0,1.879,4.456s4.417.006,6.453.006a3.976,3.976,0,0,1,3.525,3.926c0,1.684-.018,55.268-.018,55.268a3.122,3.122,0,0,1-2.668,2.577l-6.21.012-2.828,7.908,41.182.05a5.867,5.867,0,0,0,1.438-4.161,4.969,4.969,0,0,0-1.416-3.831h-4.858a2.531,2.531,0,0,1-2.516-2.432V359.537c4.049-11,11.924-17.506,18.4-17.506,6.152,0,10.033,4.595,10.033,11.528,0,3.574-.039,42.067-.05,48.425a2.849,2.849,0,0,1-2.454,3.034h-5.856a4.688,4.688,0,0,0-1.606,3.831,5.461,5.461,0,0,0,1.662,4.161l48.42-.011c48.253,0,60.679-28.934,60.679-53.584C406.146,320.654,379.242,305.718,344.508,305.718Z"/>
    <path class="cls-1" d="M236.081,405.063c-5.209-.564-5.847-3.637-5.926-7.095V355.739c0-6.179-2.166-13.318-7.4-17.69-6.492-5.432-15.953-6.854-24.194-6.854-10.649,0-19.04,1.188-27.662,4.177-.99.357-1.233,1.282-1.233,2.559,0,4.334-.03,6.693-.03,11.64a1.5,1.5,0,0,0,1.478,1.606l4.523,0a3.291,3.291,0,0,0,2.535-1.473,29.666,29.666,0,0,1,8.1-7.412,21.023,21.023,0,0,1,9.687-2.644c8.779,0,12.479,6.37,12.479,13.854v11.79c-33.166-1.913-46.764,7.847-46.764,23.451,0,17.881,12.32,25.343,24.383,25.343,10.99,0,19.216-4.166,23.828-10.574.96,5.56,4.256,9.43,8.631,9.43,2.136,0,8.89.012,17.292.017l2.819-7.9Zm-27.637-11.695c-3.354,4.383-8.895,8.12-14.732,8.12-7.624,0-11.918-3.77-11.918-12.264,0-9.8,4.6-15.187,26.65-15.187Z"/>
    <path class="cls-1" d="M459.473,405.029l-9.124.028a1.952,1.952,0,0,1-2.141-2.125s-.045-63.857-.045-65.709-.658-3.067-2.867-3.067-28.052.016-28.052.016a6.6,6.6,0,0,0-1.852,4.457,6.693,6.693,0,0,0,1.852,4.472s7.2.04,7.808.04c.58,0,1.014.418,1.014,1.2s-.044,58.453-.044,58.453a2.338,2.338,0,0,1-2.086,2.264h-9.012a4.594,4.594,0,0,0-1.685,3.843,5.792,5.792,0,0,0,1.685,4.071h44.549a6.683,6.683,0,0,0,1.461-4.172A5.066,5.066,0,0,0,459.473,405.029Z"/>
    <path class="cls-1" d="M114.315,344.412c-15.4-5.3-18.556-9.743-18.556-15.967,0-6.759,6.258-13.563,19.665-13.563a26.951,26.951,0,0,1,14.147,4.45c2.844,1.774,5.78,4.657,9.1,10.373a2.189,2.189,0,0,0,1.584,1.027l4.858.016c.721-.044.97-.5.97-1.333.006-3.435.025-12.727.03-18.22a2.167,2.167,0,0,0-1.628-2.058c-9.1-3-18-4.389-29.916-4.389-21.94,0-36.588,12.465-36.588,31.527,0,18.717,14.233,26.6,32.819,32.325,11.731,3.608,25.643,8.477,25.643,20.072,0,6.86-6.3,14.8-18.954,14.8-9.718,0-16.089-3.4-19.807-7.256-3.7-3.848-7.258-7.545-10.6-14.545-.371-.925-.987-1.728-1.785-1.728-1.9-.006-5.671-.012-5.671-.012-.781.006-1.378.575-1.378,1.712v21.288a3.194,3.194,0,0,0,1.308,2.56c10.965,6.2,25.253,8.645,37.118,8.583,21.017-.139,37.324-14.082,37.324-36.507C153.992,353.5,131.9,350.469,114.315,344.412Z"/>
    <path class="cls-1" d="M504.112,363.207c-16.129-3.876-19.408-6.715-19.408-12.409,0-4.819,4.172-9.911,12.571-9.911a24.206,24.206,0,0,1,19.7,10.68,2.278,2.278,0,0,0,2.186,1.127h3.948a1.065,1.065,0,0,0,1.083-1.048V337.709a2.124,2.124,0,0,0-1.5-2.214c-6.113-1.8-15.393-3.012-25.565-3.012-13.586,0-28.332,7.8-28.332,24.511,0,14.35,11.6,22.141,21.538,24.846,16.921,4.573,21.829,6.977,21.829,14.2,0,6.258-4.908,10.033-13.44,10.033s-16.564-6.3-21.327-17.512c-.747-1.143-1.194-1.545-1.974-1.545-2.376-.061-4.763,0-5.41,0a1.332,1.332,0,0,0-1.405,1.467c-.012,4.06.022,15.432.022,16.441,0,1.283,1.729,2.638,1.729,2.638a60.075,60.075,0,0,0,10.395,4.891,53.236,53.236,0,0,0,18.014,2.8c19.977,0,29.536-12.4,29.536-26.859C528.3,375.326,520.877,367.233,504.112,363.207Z"/>
    <path class="cls-1" d="M427.762,323.158l20.066-.022a2.058,2.058,0,0,0,2.2-1.434l4.641-14.361c.334-1.193-.435-1.8-1.55-1.8l-21.037.022a1.86,1.86,0,0,0-1.863,1.534l-3.859,13.218C425.754,321.836,426.535,323.158,427.762,323.158Z"/>
    <path class="cls-1" d="M627.231,405.085c-4.752,0-8.41-1.45-10.485-4.59-.937-1.394-25.955-39.575-26.479-40.5,6.313-8.734,9.614-11.963,15.158-14.868,3.692-1.947,10.507-3.391,15.649-3.391.045,0,1.238-.948,1.238-3.765,0-2.772-1.283-3.865-1.283-3.865L596,334.134a4.116,4.116,0,0,0-3.023,1.952c-.558.8-20.212,29.05-25.465,36.624,0-27.489.011-63.718.011-64.32a2.606,2.606,0,0,0-2.811-2.783l-31.343-.011a4.928,4.928,0,0,0-1.528,3.853,6.053,6.053,0,0,0,1.517,4.15H543.5c1.238,0,1.785.585,1.785,1.863s-.011,87.671-.011,87.671c0,1.244-.614,1.846-1.484,1.846l-9.648-.022a5.5,5.5,0,0,0-1.55,3.909,6.3,6.3,0,0,0,1.55,4.105l41.883-.034a8.209,8.209,0,0,0,1.172-4.126,6.6,6.6,0,0,0-1.172-3.832l-6.87.017a1.712,1.712,0,0,1-1.651-1.807v-20.34c1.952-2.036,5.51-5.711,5.978-6.2a1.991,1.991,0,0,1,3.335.313c.815,1.322,16.765,25.771,17.145,26.407.736,1.222.29,1.762-.614,1.762l-4.952.045a8.114,8.114,0,0,0-1.194,3.876,8.848,8.848,0,0,0,1.071,3.887l41.783.073a7.053,7.053,0,0,0,1.3-3.893,7.178,7.178,0,0,0-1.517-4.032Z"/>
    <g>
      <path class="cls-1" d="M643.092,343.6c0-.1-.022-.206-.022-.3v-.914a2.617,2.617,0,0,0-.915-2.253,3.43,3.43,0,0,0-1.472-.569,3.231,3.231,0,0,0,1.762-.681,2.229,2.229,0,0,0,.737-1.835,2.527,2.527,0,0,0-1.361-2.409,4.794,4.794,0,0,0-1.986-.518c-.145,0-.836-.012-2.086-.012-1.271-.022-2.219-.022-2.833-.022v10.089h2.633V340.57h.557l.58.044a3.241,3.241,0,0,1,.893.156,1.2,1.2,0,0,1,.747.748,5.011,5.011,0,0,1,.179,1.249,8.139,8.139,0,0,0,.167,1.411h2.543l-.067-.279A2.891,2.891,0,0,1,643.092,343.6Zm-3.056-5.181a2.427,2.427,0,0,1-1.461.379h-1.026v-2.911h.635a5.1,5.1,0,0,1,1.551.189,1.151,1.151,0,0,1,.8,1.155A1.3,1.3,0,0,1,640.036,338.417Z"/>
      <path class="cls-1" d="M645.357,332.684a9.093,9.093,0,0,0-12.727-.2,8.663,8.663,0,0,0-2.855,6.637,9.124,9.124,0,1,0,15.582-6.436ZM644.2,344.5a7.552,7.552,0,1,1,.023-10.608A7.553,7.553,0,0,1,644.2,344.5Z"/>
    </g>
  </g>
</svg>
