<svg id="Capa_1" data-name="Capa 1" xmlns="http://www.w3.org/2000/svg" width="720" height="720" viewBox="0 0 720 720">
  <defs>
    <style>
      .cls-1 {
        fill: #274a92;
      }

      .cls-1, .cls-2 {
        fill-rule: evenodd;
      }

      .cls-2 {
        fill: #fff;
      }
    </style>
  </defs>
  <g>
    <path class="cls-1" d="M538.517,442.215a22.227,22.227,0,0,1-22.223,22.222H203.7a22.226,22.226,0,0,1-22.219-22.222V277.79A22.228,22.228,0,0,1,203.7,255.563H516.294a22.23,22.23,0,0,1,22.223,22.227V442.215Z"/>
    <polygon class="cls-2" points="378.909 327.631 387.068 303.934 355 303.934 347.455 327.621 378.909 327.631 378.909 327.631"/>
    <polygon class="cls-2" points="327.374 327.61 324.879 303.934 300.357 303.934 287.833 327.6 327.374 327.61 327.374 327.61"/>
    <polygon class="cls-2" points="344.449 337.063 332.366 374.982 328.309 336.492 283.951 334.937 264.015 372.604 269.679 334.433 238.888 333.349 229.945 413.935 272.253 413.935 304.575 348.541 311.163 413.935 349.184 413.935 375.286 338.146 344.449 337.063 344.449 337.063"/>
    <polygon class="cls-2" points="270.698 327.597 274.265 303.533 242.196 303.533 239.526 327.585 270.698 327.597 270.698 327.597"/>
    <path class="cls-2" d="M455.936,303.934H395.291l-7.9,23.7,54.716.018c15.087.4,22.509,12.736,17.4,28-5.181,15.516-20.331,27.261-37.568,28.072-4.423.218-5.958.7-12.253.2l14.922-44.04-40.82-1.437-25.164,75.491h60.646c30.492,0,63.9-24.079,74.208-55s-6.909-55-37.544-55Z"/>
  </g>
</svg>
